<svg xmlns="http://www.w3.org/2000/svg" xmlns:xlink="http://www.w3.org/1999/xlink" width="84" height="26" viewBox="0 0 84 26">
    <defs>
        <path id="a" d="M0 .032h13.576V10.3H0z"/>
        <path id="c" d="M0 26h84V0H0z"/>
    </defs>
    <g fill="none" fill-rule="evenodd">
        <mask id="b" fill="#fff">
            <use xlink:href="#a"/>
        </mask>
        <path fill="#FFF" d="M13.576 6.539l-4.293-5.47S7.695-1.16 4.365.914c0 0-4.627 2.308-4.353 6.008 0 0 .428 3.526 3.364 3.372 2.94-.155 3.246-3.72 3.246-3.72s.057-2.067 2.012-2.252c0 0 2.027-.355 4.942 2.216" mask="url(#b)"/>
        <path fill="#FFF" d="M4.751 14.3L2.71 20.79s-.923 2.513 2.694 4.056c0 0 4.553 2.46 7.442.196 0 0 2.66-2.297.848-4.584-1.814-2.286-4.925-.563-4.925-.563s-1.734 1.097-3.007-.379c0 0-1.455-1.442-1.01-5.216M16.28 17.55l6.432-1.955s2.56-.645 1.933-4.549c0 0-.362-5.205-3.753-6.348 0 0-3.293-.932-4.228 1.878-.936 2.81 2.123 4.446 2.123 4.446s1.818.834 1.269 2.735c0 0-.425 2.033-3.777 3.793M14.972 12.483c.109 1.972-1.55 3.655-3.706 3.762-2.153.106-3.99-1.404-4.098-3.377-.11-1.971 1.55-3.657 3.704-3.763 2.155-.106 3.99 1.406 4.1 3.378M33.86 10.65h-1.28c.172.28.257.626.257 1.037 0 .567-.183 1.034-.549 1.4-.365.365-.918.548-1.657.548-.138 0-.276-.01-.414-.03a2.64 2.64 0 0 0-.39-.031c-.187 0-.333.039-.439.116a.384.384 0 0 0-.158.327c0 .14.04.25.122.327.081.078.19.117.329.117.154 0 .312-.004.475-.01.162-.008.32-.012.475-.012.943 0 1.617.14 2.023.42.406.28.61.658.61 1.135 0 .24-.05.453-.147.642a1.29 1.29 0 0 1-.463.488 2.52 2.52 0 0 1-.816.315 5.644 5.644 0 0 1-1.207.111c-.934 0-1.606-.14-2.016-.42-.41-.28-.615-.658-.615-1.135 0-.56.252-.967.755-1.222a.898.898 0 0 1-.375-.753c0-.387.21-.687.63-.9-.381-.363-.571-.84-.571-1.432 0-.576.18-1.043.542-1.4.36-.358.91-.538 1.65-.538h3.23v.9zm-4.062 4.642c-.224.033-.402.08-.536.142a.585.585 0 0 0-.28.234.658.658 0 0 0-.08.326c0 .124.027.233.08.327a.587.587 0 0 0 .28.234c.134.062.312.11.536.142.223.032.502.05.834.05.334 0 .612-.018.835-.05.224-.033.402-.08.536-.142a.619.619 0 0 0 .286-.234.62.62 0 0 0 .086-.327.62.62 0 0 0-.086-.326.617.617 0 0 0-.286-.234 1.992 1.992 0 0 0-.536-.142 5.78 5.78 0 0 0-.835-.05c-.332 0-.61.017-.834.05zm-.162-2.736c.192.226.523.34.993.34.471 0 .803-.114.994-.34.19-.226.286-.512.286-.858s-.096-.628-.286-.851c-.191-.222-.523-.333-.994-.333-.47 0-.801.111-.993.333-.19.223-.286.505-.286.851s.096.632.286.858zM36.08 13.724c.347.24.853.36 1.52.36.164 0 .342-.014.531-.043.19-.029.377-.07.562-.124.185-.054.364-.12.537-.198.173-.08.321-.164.445-.255v.978c-.247.116-.572.23-.976.34a4.95 4.95 0 0 1-1.322.168c-.42 0-.807-.056-1.16-.167a2.507 2.507 0 0 1-.908-.495 2.23 2.23 0 0 1-.587-.818 2.812 2.812 0 0 1-.21-1.12c0-.421.07-.792.21-1.114.14-.322.335-.593.587-.81.25-.22.549-.387.895-.503a3.573 3.573 0 0 1 1.137-.173c.6 0 1.078.107 1.433.321.353.215.607.474.759.78.152.304.212.617.179.938-.033.321-.144.59-.333.804h-3.854c.024.513.21.89.556 1.131zm2.605-1.945a.576.576 0 0 0 .036-.39.761.761 0 0 0-.222-.373 1.288 1.288 0 0 0-.463-.273 2.05 2.05 0 0 0-.698-.105c-.206 0-.403.02-.593.062-.189.042-.362.11-.518.205a1.392 1.392 0 0 0-.643.875h3.1zM41.712 13.29c.143.106.31.206.502.3.193.093.392.175.597.244.205.07.414.125.628.165.213.04.412.06.596.06.15 0 .3-.007.446-.023.146-.016.276-.047.389-.092a.667.667 0 0 0 .27-.183.44.44 0 0 0 .1-.3.443.443 0 0 0-.106-.31.783.783 0 0 0-.289-.19 2.138 2.138 0 0 0-.427-.116 14.233 14.233 0 0 0-.508-.079 13.41 13.41 0 0 1-.886-.165 2.576 2.576 0 0 1-.71-.263 1.288 1.288 0 0 1-.47-.445c-.113-.184-.17-.421-.17-.714 0-.22.053-.42.158-.599.104-.179.249-.329.432-.451.185-.123.407-.216.667-.28.258-.066.543-.099.853-.099.167 0 .345.012.534.037.188.024.375.055.559.091.183.037.355.078.514.122.16.045.294.092.402.14v.965a2.27 2.27 0 0 0-.433-.178 8.498 8.498 0 0 0-.54-.146 5.72 5.72 0 0 0-.553-.104 3.63 3.63 0 0 0-.483-.037c-.335 0-.605.04-.81.122-.205.082-.308.216-.308.403a.35.35 0 0 0 .107.262c.071.07.167.124.289.165.122.041.255.074.401.098.147.024.296.05.447.073.3.05.59.108.866.177.276.07.523.17.74.3.218.13.392.29.522.482.13.191.195.433.195.726 0 .472-.189.84-.565 1.105-.378.265-.921.397-1.633.397-.209 0-.429-.02-.66-.061a5.673 5.673 0 0 1-.664-.159 6.366 6.366 0 0 1-.584-.207 2.71 2.71 0 0 1-.415-.207V13.29zM53.207 13.409a2.25 2.25 0 0 1-.56.823 2.509 2.509 0 0 1-.918.532 3.943 3.943 0 0 1-1.264.186 3.94 3.94 0 0 1-1.263-.186 2.505 2.505 0 0 1-.918-.532 2.237 2.237 0 0 1-.56-.823 2.852 2.852 0 0 1-.19-1.06c0-.387.064-.74.19-1.058.126-.317.312-.592.56-.823.247-.231.553-.408.918-.532a3.921 3.921 0 0 1 1.263-.186c.478 0 .899.062 1.264.186.364.124.67.3.918.532.247.231.434.506.56.823.126.318.188.67.188 1.059 0 .388-.062.74-.188 1.059m-.969-1.728a1.418 1.418 0 0 0-.325-.539 1.504 1.504 0 0 0-.58-.359 2.545 2.545 0 0 0-.868-.13c-.34 0-.628.043-.867.13-.24.087-.432.206-.58.36a1.413 1.413 0 0 0-.326.538c-.07.206-.105.43-.105.669 0 .24.036.463.105.67.07.205.178.386.326.538.148.153.34.272.58.36.239.086.528.13.867.13.34 0 .628-.044.867-.13.24-.088.433-.207.58-.36a1.42 1.42 0 0 0 .326-.539c.07-.206.105-.43.105-.67 0-.239-.035-.462-.105-.668M59.468 14.634a3.775 3.775 0 0 1-.504.162 5.38 5.38 0 0 1-.616.11c-.227.03-.48.044-.759.044-.445 0-.847-.064-1.205-.192a2.647 2.647 0 0 1-.909-.532 2.314 2.314 0 0 1-.575-.824 2.688 2.688 0 0 1-.202-1.052c0-.421.074-.792.221-1.114a2.29 2.29 0 0 1 .616-.81c.26-.22.574-.387.941-.503a4 4 0 0 1 1.205-.173c.838 0 1.431.169 1.78.507.35.338.463.76.341 1.261h-.969a.592.592 0 0 0-.177-.618c-.178-.165-.503-.247-.975-.247-.559 0-1.019.138-1.382.415-.362.277-.543.704-.543 1.282 0 .24.035.463.105.67.07.206.183.386.34.538.157.153.367.272.629.36.262.086.59.13.982.13a4.645 4.645 0 0 0 1.1-.149c.192-.05.375-.108.55-.174.174-.066.322-.141.445-.224v.941c-.14.067-.286.13-.439.192M68.87 9.84v3.898c0 .19.04.313.119.37.078.059.193.087.342.087a.787.787 0 0 0 .343-.073v.655a2.067 2.067 0 0 1-.825.173c-.237 0-.437-.047-.598-.143a.649.649 0 0 1-.315-.389 2.306 2.306 0 0 1-.744.39 2.766 2.766 0 0 1-.862.142 2.88 2.88 0 0 1-1.07-.186 2.11 2.11 0 0 1-.785-.532 2.406 2.406 0 0 1-.49-.823 3.123 3.123 0 0 1-.171-1.06c0-.387.057-.74.171-1.058a2.39 2.39 0 0 1 .49-.823c.213-.23.475-.408.787-.532a2.873 2.873 0 0 1 1.07-.186c.298 0 .596.056.891.168.296.113.526.227.692.342l.956-.42zm-4.006 3.18c.064.205.16.386.29.538.13.153.298.272.502.36.205.086.45.13.734.13.354 0 .66-.064.916-.193a1.84 1.84 0 0 0 .609-.464v-2.082c-.126-.165-.324-.316-.592-.452a2.03 2.03 0 0 0-.933-.204c-.284 0-.529.043-.734.13a1.326 1.326 0 0 0-.503.36c-.13.152-.225.331-.29.538-.062.206-.093.43-.093.669 0 .24.03.463.094.67z"/>
        <mask id="d" fill="#fff">
            <use xlink:href="#c"/>
        </mask>
        <path fill="#FFF" d="M71.628 14.95h1.302v-1.3h-1.302zM80.305 14.634c-.152.062-.32.116-.504.162a5.384 5.384 0 0 1-.615.11c-.227.03-.48.044-.76.044-.445 0-.846-.064-1.204-.192a2.65 2.65 0 0 1-.91-.532 2.316 2.316 0 0 1-.575-.824 2.699 2.699 0 0 1-.202-1.052c0-.421.074-.792.222-1.114.148-.322.353-.593.614-.81.262-.22.575-.387.942-.503a3.995 3.995 0 0 1 1.205-.173c.838 0 1.432.169 1.781.507.35.338.463.76.34 1.261h-.968c.06-.247.002-.453-.177-.618-.179-.165-.505-.247-.976-.247-.559 0-1.02.138-1.381.415-.363.277-.543.704-.543 1.282 0 .24.034.463.104.67.07.206.183.386.34.538.157.153.367.272.629.36.262.086.59.13.982.13a4.623 4.623 0 0 0 1.1-.149c.192-.05.375-.108.55-.174.174-.066.323-.141.445-.224v.941c-.14.067-.286.13-.439.192M82.698 14.95H84v-1.3h-1.302zM21.158 22.637h-.57v-.242h.9v.885c-.083 0-.157.007-.22.02a7.144 7.144 0 0 0-.19.04c-.063.015-.13.028-.202.041a1.53 1.53 0 0 1-.261.019 1.63 1.63 0 0 1-.52-.071.816.816 0 0 1-.332-.198.732.732 0 0 1-.176-.308 1.427 1.427 0 0 1 .008-.795.769.769 0 0 1 .195-.307.89.89 0 0 1 .35-.2c.144-.047.32-.071.528-.071a1.75 1.75 0 0 1 .716.142v.264a2.439 2.439 0 0 0-.322-.112 1.516 1.516 0 0 0-.395-.046c-.15 0-.278.02-.38.057a.652.652 0 0 0-.25.154.568.568 0 0 0-.135.231.972.972 0 0 0-.04.285c0 .103.01.199.032.288a.54.54 0 0 0 .118.23.56.56 0 0 0 .23.154c.097.037.222.055.373.055a1.406 1.406 0 0 0 .543-.1v-.415zM24.025 21.752c-.158-.017-.305-.03-.438-.04a5.33 5.33 0 0 0-.396-.014c-.18 0-.32.024-.42.07-.098.048-.147.118-.147.21 0 .095.05.162.153.203.102.04.235.061.4.061h.712v.249h-.712c-.194 0-.35.028-.468.083-.118.056-.176.138-.176.247 0 .055.016.103.05.145.034.042.08.076.14.103a.82.82 0 0 0 .212.062c.08.014.166.02.256.02a5.59 5.59 0 0 0 .439-.013l.218-.018.245-.022v.255a10.814 10.814 0 0 1-.95.047c-.323 0-.572-.052-.744-.154-.173-.103-.26-.24-.26-.41 0-.106.037-.2.11-.28a.754.754 0 0 1 .303-.194.624.624 0 0 1-.24-.166.357.357 0 0 1-.083-.237c0-.15.078-.273.236-.367.158-.095.383-.142.678-.142.184 0 .345.006.485.016.138.01.271.02.397.031v.255zM24.749 22.939c.131.06.278.113.442.157a1.961 1.961 0 0 0 .728.054.836.836 0 0 0 .194-.046.407.407 0 0 0 .14-.086.185.185 0 0 0 .054-.136.178.178 0 0 0-.052-.129.446.446 0 0 0-.14-.095 1.205 1.205 0 0 0-.206-.07 6.302 6.302 0 0 0-.247-.058 5.768 5.768 0 0 1-.337-.086 1.557 1.557 0 0 1-.292-.113.674.674 0 0 1-.209-.159.329.329 0 0 1-.08-.221c0-.072.022-.138.066-.2a.565.565 0 0 1 .185-.158c.08-.045.176-.08.29-.105a1.92 1.92 0 0 1 .59-.026 3.712 3.712 0 0 1 .426.076c.067.017.128.034.185.05v.265c-.1-.036-.22-.071-.36-.105a1.876 1.876 0 0 0-.664-.038.664.664 0 0 0-.17.045.311.311 0 0 0-.115.08.17.17 0 0 0-.042.116c0 .044.018.081.054.113.035.031.083.06.142.085.06.025.127.047.202.066.074.019.154.037.238.057.112.024.223.054.332.087.11.034.208.075.295.121a.746.746 0 0 1 .216.17.37.37 0 0 1 .019.445.54.54 0 0 1-.196.164c-.085.046-.19.081-.313.105a2.218 2.218 0 0 1-.654.021 2.69 2.69 0 0 1-.253-.04 4.359 4.359 0 0 1-.248-.06 2.212 2.212 0 0 1-.22-.07v-.276zM27.84 23.4h-.33v-1.693h-.812v-.257h1.953v.257h-.812zM29.302 23.4h.651v-1.95h-.65zM32.502 22.856a.751.751 0 0 1-.174.295.758.758 0 0 1-.303.185 1.373 1.373 0 0 1-.444.064c-.172 0-.32-.021-.443-.064a.754.754 0 0 1-.304-.185.74.74 0 0 1-.174-.295 1.287 1.287 0 0 1-.055-.395c0-.148.018-.28.055-.396a.742.742 0 0 1 .174-.295.753.753 0 0 1 .304-.185c.123-.042.27-.064.443-.064s.32.022.444.064a.757.757 0 0 1 .303.185c.079.081.137.18.174.295.037.116.056.248.056.396 0 .147-.019.279-.056.395zm-.286-.682a.479.479 0 0 0-.311-.364.914.914 0 0 0-.324-.05.908.908 0 0 0-.322.05.484.484 0 0 0-.312.364c-.02.086-.031.182-.031.287 0 .105.01.2.03.286.021.086.057.16.107.221a.48.48 0 0 0 .206.143c.085.033.193.05.322.05.13 0 .237-.017.323-.05a.474.474 0 0 0 .205-.143.548.548 0 0 0 .107-.22c.02-.087.03-.182.03-.287 0-.105-.01-.2-.03-.287zm-.618-.892h-.336l.682-.482h.37l-.716.482zM34.204 23.4h-.344v-1.95h.344l1.266 1.489V21.45h.344v1.95h-.344l-1.266-1.489zM37.12 22.939c.131.06.28.113.443.157a1.962 1.962 0 0 0 .727.054.827.827 0 0 0 .195-.046.4.4 0 0 0 .14-.086.186.186 0 0 0 .054-.136.18.18 0 0 0-.051-.129.453.453 0 0 0-.14-.095 1.206 1.206 0 0 0-.206-.07 6.682 6.682 0 0 0-.249-.058 5.902 5.902 0 0 1-.336-.086 1.564 1.564 0 0 1-.293-.113.68.68 0 0 1-.209-.159.33.33 0 0 1-.079-.221c0-.072.022-.138.066-.2a.569.569 0 0 1 .184-.158c.08-.045.177-.08.291-.105a1.905 1.905 0 0 1 .59-.026 3.47 3.47 0 0 1 .611.127v.264c-.1-.036-.22-.071-.36-.105a1.883 1.883 0 0 0-.664-.038.66.66 0 0 0-.17.045.307.307 0 0 0-.115.08.17.17 0 0 0-.042.116c0 .044.018.081.053.113.036.031.084.06.144.085.059.025.126.047.2.066l.24.057c.112.024.223.054.332.087.11.034.207.075.294.121.088.048.16.104.216.17a.37.37 0 0 1 .019.445.543.543 0 0 1-.195.164c-.086.046-.19.081-.314.105a2.223 2.223 0 0 1-.654.021 2.67 2.67 0 0 1-.253-.04 4.63 4.63 0 0 1-.249-.06 2.2 2.2 0 0 1-.22-.07v-.276zM41.619 22.836a.782.782 0 0 1-.174.306.754.754 0 0 1-.303.192 1.325 1.325 0 0 1-.445.066c-.172 0-.32-.022-.443-.066a.75.75 0 0 1-.303-.192.774.774 0 0 1-.174-.306 1.382 1.382 0 0 1-.056-.41c0-.154.018-.29.056-.411a.777.777 0 0 1 .174-.307.75.75 0 0 1 .303-.192c.123-.044.27-.066.443-.066s.32.022.445.066a.753.753 0 0 1 .303.192.785.785 0 0 1 .174.307c.037.12.055.257.055.41a1.4 1.4 0 0 1-.055.41m-.288-.707a.574.574 0 0 0-.105-.23.483.483 0 0 0-.206-.148.883.883 0 0 0-.323-.051.883.883 0 0 0-.322.051.485.485 0 0 0-.205.148.57.57 0 0 0-.107.23c-.02.09-.03.188-.03.297 0 .11.01.208.03.297.02.09.056.166.107.23a.48.48 0 0 0 .205.148.872.872 0 0 0 .322.052c.13 0 .237-.017.323-.052a.478.478 0 0 0 .206-.148.576.576 0 0 0 .105-.23c.022-.089.032-.188.032-.297 0-.109-.01-.208-.032-.297M44.576 21.743a1.88 1.88 0 0 0-.435-.045c-.155 0-.285.02-.387.057a.554.554 0 0 0-.377.385 1.02 1.02 0 0 0-.038.285c0 .103.012.199.038.288a.547.547 0 0 0 .377.384c.102.036.232.055.387.055.174 0 .321-.016.442-.046a3.12 3.12 0 0 0 .347-.109v.261a2.037 2.037 0 0 1-.789.142c-.218 0-.401-.024-.551-.071a.923.923 0 0 1-.36-.198.71.71 0 0 1-.195-.309 1.292 1.292 0 0 1-.058-.397c0-.145.02-.277.058-.397a.72.72 0 0 1 .194-.307.912.912 0 0 1 .36-.2c.15-.047.334-.071.552-.071a2.094 2.094 0 0 1 .789.142v.26a2.693 2.693 0 0 0-.354-.11M45.581 23.4h.652v-1.95h-.652z" mask="url(#d)"/>
        <path fill="#FFF" d="M46.847 22.985l-.222.415h-.392l1.048-1.95h.508l1.048 1.95h-.392l-.222-.415h-1.376zm1.237-.257l-.549-1.027-.55 1.027h1.1zM50.79 23.143v.257h-1.302v-1.95h.291v1.693zM52.093 21.45h.455l.845 1.18.85-1.18h.455l-1.87 2.6h-.46l.8-1.113zM57.6 21.743a1.882 1.882 0 0 0-.435-.045c-.156 0-.285.02-.388.057a.625.625 0 0 0-.247.154.562.562 0 0 0-.13.231 1.04 1.04 0 0 0-.038.285c0 .103.013.199.038.288a.555.555 0 0 0 .377.384c.103.036.232.055.388.055.173 0 .32-.016.442-.046.12-.03.236-.067.346-.109v.261a2.026 2.026 0 0 1-.788.142c-.218 0-.403-.024-.552-.071a.924.924 0 0 1-.36-.198.71.71 0 0 1-.195-.309 1.295 1.295 0 0 1-.058-.397c0-.145.02-.277.058-.397a.72.72 0 0 1 .195-.307.913.913 0 0 1 .36-.2c.15-.047.334-.071.552-.071a2.083 2.083 0 0 1 .789.142v.26a2.668 2.668 0 0 0-.354-.11M60.502 22.836a.784.784 0 0 1-.174.306.758.758 0 0 1-.303.192 1.326 1.326 0 0 1-.444.066c-.172 0-.32-.022-.444-.066a.753.753 0 0 1-.303-.192.775.775 0 0 1-.173-.306 1.385 1.385 0 0 1-.056-.41c0-.154.018-.29.056-.411a.778.778 0 0 1 .173-.307.752.752 0 0 1 .303-.192c.124-.044.272-.066.444-.066s.32.022.444.066a.757.757 0 0 1 .303.192.787.787 0 0 1 .174.307c.037.12.056.257.056.41 0 .153-.019.29-.056.41m-.287-.707a.57.57 0 0 0-.106-.23.483.483 0 0 0-.205-.148.885.885 0 0 0-.323-.051.88.88 0 0 0-.323.051.484.484 0 0 0-.205.148.568.568 0 0 0-.106.23c-.02.09-.031.188-.031.297 0 .11.01.208.031.297a.57.57 0 0 0 .106.23c.05.064.119.113.205.148a.868.868 0 0 0 .323.052.873.873 0 0 0 .323-.052.478.478 0 0 0 .205-.148.573.573 0 0 0 .106-.23c.02-.089.031-.188.031-.297 0-.109-.01-.208-.03-.297M63.106 22.836a.781.781 0 0 1-.173.306.757.757 0 0 1-.303.192 1.326 1.326 0 0 1-.444.066c-.173 0-.321-.022-.444-.066a.754.754 0 0 1-.303-.192.775.775 0 0 1-.174-.306 1.386 1.386 0 0 1-.056-.41c0-.154.019-.29.056-.411a.778.778 0 0 1 .174-.307.754.754 0 0 1 .303-.192 1.32 1.32 0 0 1 .444-.066c.172 0 .32.022.444.066a.756.756 0 0 1 .303.192.784.784 0 0 1 .173.307c.037.12.057.257.057.41 0 .153-.02.29-.057.41m-.286-.707a.57.57 0 0 0-.106-.23.482.482 0 0 0-.205-.148.883.883 0 0 0-.323-.051.881.881 0 0 0-.323.051.485.485 0 0 0-.205.148.568.568 0 0 0-.106.23 1.34 1.34 0 0 0-.032.297c0 .11.011.208.032.297a.57.57 0 0 0 .106.23.48.48 0 0 0 .205.148.87.87 0 0 0 .323.052c.129 0 .236-.017.323-.052a.477.477 0 0 0 .205-.148.573.573 0 0 0 .106-.23c.02-.089.031-.188.031-.297 0-.109-.01-.208-.031-.297M65.775 21.497c.147.032.268.076.363.132a.598.598 0 0 1 .212.2.485.485 0 0 1 .069.255.494.494 0 0 1-.07.254.592.592 0 0 1-.211.2 1.21 1.21 0 0 1-.364.131 2.524 2.524 0 0 1-.524.047h-.414v.684h-.37v-1.95h.785c.202 0 .377.016.524.047m.086.867c.124-.064.187-.157.187-.28 0-.124-.063-.218-.187-.281-.124-.064-.328-.096-.61-.096h-.415v.752h.415c.282 0 .486-.032.61-.095M68.955 21.752a12.22 12.22 0 0 0-.438-.04 5.325 5.325 0 0 0-.395-.014c-.181 0-.321.024-.42.07-.098.048-.148.118-.148.21 0 .095.051.162.153.203.102.04.235.061.4.061h.713v.249h-.713c-.194 0-.35.028-.467.083-.119.056-.177.138-.177.247 0 .055.016.103.05.145.034.042.081.076.14.103a.82.82 0 0 0 .212.062c.08.014.166.02.257.02a5.545 5.545 0 0 0 .438-.013l.219-.018.244-.022v.255a10.57 10.57 0 0 1-.95.047c-.323 0-.571-.052-.744-.154-.173-.103-.26-.24-.26-.41 0-.106.037-.2.11-.28a.75.75 0 0 1 .303-.194.619.619 0 0 1-.239-.166.356.356 0 0 1-.084-.237c0-.15.079-.273.236-.367.158-.095.384-.142.678-.142.184 0 .346.006.485.016.14.01.272.02.397.031v.255zM70.067 22.58a.651.651 0 0 0-.085.011v.777h-.308V21.45h.75c.15 0 .28.016.388.046.11.032.2.073.272.125a.516.516 0 0 1 .162.18.458.458 0 0 1-.049.504.652.652 0 0 1-.323.206c.104.069.19.15.255.242.067.093.127.197.183.313a.274.274 0 0 0 .086.113c.029.019.068.028.116.028a.33.33 0 0 0 .114-.021v.17a.864.864 0 0 1-.266.044.361.361 0 0 1-.277-.125.426.426 0 0 1-.04-.06 38.657 38.657 0 0 0-.125-.242.786.786 0 0 0-.153-.204.67.67 0 0 0-.229-.141 1 1 0 0 0-.354-.053c-.04 0-.08.002-.117.005zm-.085-.251h.442c.205 0 .352-.03.438-.09.086-.06.13-.134.13-.223 0-.09-.044-.164-.13-.224-.086-.06-.233-.09-.438-.09h-.442v.627zM72.242 22.985l-.221.415h-.393l1.048-1.95h.508l1.049 1.95h-.393l-.222-.415h-1.376zm1.238-.257l-.55-1.027-.55 1.027h1.1zM76.483 21.743a1.877 1.877 0 0 0-.435-.045c-.156 0-.284.02-.387.057a.63.63 0 0 0-.247.154.56.56 0 0 0-.13.231 1.017 1.017 0 0 0-.038.285c0 .103.012.199.038.288a.553.553 0 0 0 .377.384c.103.036.231.055.387.055.174 0 .321-.016.442-.046.12-.03.237-.067.347-.109v.261a2.018 2.018 0 0 1-.789.142 1.85 1.85 0 0 1-.551-.071.924.924 0 0 1-.36-.198.711.711 0 0 1-.196-.309 1.295 1.295 0 0 1-.057-.397c0-.145.019-.277.057-.397a.722.722 0 0 1 .195-.307.913.913 0 0 1 .36-.2c.15-.047.334-.071.552-.071a2.097 2.097 0 0 1 .789.142v.26a2.7 2.7 0 0 0-.354-.11M77.488 23.4h.652v-1.95h-.652zM80.688 22.856a.742.742 0 0 1-.174.295.754.754 0 0 1-.303.185 1.37 1.37 0 0 1-.444.064c-.172 0-.32-.021-.444-.064a.76.76 0 0 1-.303-.185.744.744 0 0 1-.174-.295 1.29 1.29 0 0 1-.055-.395c0-.148.018-.28.055-.396a.747.747 0 0 1 .174-.295.76.76 0 0 1 .303-.185c.124-.042.272-.064.444-.064.173 0 .32.022.444.064a.754.754 0 0 1 .303.185c.079.081.137.18.174.295.037.116.056.248.056.396 0 .147-.019.279-.056.395zm-.286-.682a.484.484 0 0 0-.311-.364.914.914 0 0 0-.324-.05.914.914 0 0 0-.323.05.487.487 0 0 0-.311.364c-.021.086-.031.182-.031.287 0 .105.01.2.031.286a.481.481 0 0 0 .311.364c.087.033.195.05.323.05a.902.902 0 0 0 .323-.05.48.48 0 0 0 .312-.364 1.22 1.22 0 0 0 .03-.286c0-.105-.01-.2-.03-.287zm-.618-.892h-.336l.683-.482h.37l-.717.482zM81.74 23.4h-.345v-1.95h.344l1.266 1.489V21.45h.344v1.95h-.344l-1.266-1.489z" mask="url(#d)"/>
    </g>
</svg>
