<svg xmlns="http://www.w3.org/2000/svg" xmlns:xlink="http://www.w3.org/1999/xlink" width="23" height="31" viewBox="0 0 23 31">
    <defs>
        <path id="a" d="M0 31h22.997V.03H0z"/>
        <path id="c" d="M2.964.03c-.558.129-.732.64-.794.822L.776 4.832l-.006.02c-.277.791-.767.482-.767.482l.271.216.197.156c.16.12.352.2.548.216h.149c.316-.027.62-.236.787-.725C2.158 4.597 3.288 1 3.31.927V.924h.244v.002c.022.069.982 3.128 1.292 4.078l.003.01c0-.004-.002-.007-.003-.01.398.366.852.11 1.081-.07l.15-.133L4.697.851C4.634.67 4.459.16 3.902.032h-.938zm1.96 5.056a.18.18 0 0 1 0 0zm0 .005l-.007-.021.008.021z"/>
        <path id="e" d="M.638.007l-.393.42C.225.45.205.474.187.499c-.208.281-.258.646 0 .932.036.04.078.078.127.114.118.088.273.164.473.222.639.184 4.47 1.204 4.55 1.225h.001v.22h-.002L.993 4.38c-.39.36-.117.77.074.977l.142.135 4.207-1.248c.222-.064.905-.263.905-.961v-.36c0-.699-.683-.897-.905-.961L1.195.708l-.04-.012h-.001C.315.448.639.007.64.004L.638.007z"/>
        <path id="g" d="M4.136.757c-.204.596-1.333 4.17-1.356 4.245H2.78l-.243.001v-.002C2.513 4.934 1.553 1.893 1.243.95.846.585.392.84.162 1.019l-.15.132 1.382 3.925c.071.207.291.844 1.065.844h.397c.775 0 .994-.637 1.065-.844l1.393-3.957.007-.019c.276-.783.763-.481.767-.479L6.084.618 5.816.407 5.62.252a1.06 1.06 0 0 0-.622-.218c-.342 0-.682.2-.861.723z"/>
        <path id="i" d="M.92 1.317c-.223.068-.906.273-.906.995v.37c0 .723.683.928.905.994L5.141 4.97l.04.012c.822.253.529.694.514.715l.395-.436a.997.997 0 0 0 .058-.075c.209-.29.259-.667 0-.962a.885.885 0 0 0-.126-.118 1.443 1.443 0 0 0-.473-.23c-.64-.19-4.471-1.243-4.55-1.265H.997v-.228H1c.073-.02 3.332-.916 4.343-1.206.39-.37.117-.795-.074-1.009l-.141-.14-4.208 1.29z"/>
        <path id="k" d="M1.797.037l-.19.054a1.776 1.776 0 0 0-.305.117c-.613.313-.562.866-.239 1.23l.388.411 2.331 2.473-.17.157L.787 2.272c-.003-.002-.49-.297-.766.47l-.007.02S2.469 4.903 2.88 5.256c.412.353 1.042.224 1.41-.117l.246-.224a.891.891 0 0 0 .277-.45c.091-.28.053-.588-.182-.82-.06-.059-2.599-2.494-2.599-2.494l-.142-.136C1.698.807 1.422.394 1.815.032l-.018.005z"/>
        <path id="m" d="M.577.345L.33.57a.898.898 0 0 0-.277.452c-.09.283-.053.592.182.825.06.06 2.599 2.511 2.599 2.511l.142.138c.193.21.468.625.075.99a.462.462 0 0 1 .018-.006l.19-.053a1.71 1.71 0 0 0 .305-.119c.613-.314.562-.87.239-1.238l-.387-.414-2.332-2.489.17-.158L4.08 3.231c.004.003.491.3.767-.472l.006-.02S2.398.582 1.987.227a.885.885 0 0 0-.59-.211 1.24 1.24 0 0 0-.82.329z"/>
        <path id="o" d="M4.085.2c-.01.005-2.802 2.371-2.802 2.371l-.151.13c-.233.173-.693.423-1.097.067l.066.188c.046.131.103.241.169.333.353.495.94.442 1.333.16l.458-.351L4.818.987l.172.155-2.228 2.319s-.335.444.523.694l.042.012L5.86 1.804l.005-.009c.231-.238.26-.55.155-.833a.915.915 0 0 0-.29-.435L5.534.353 5.47.297a1.032 1.032 0 0 0-.495-.255 1.194 1.194 0 0 0-.306-.04c-.209 0-.415.06-.585.198z"/>
        <path id="q" d="M.223 2.375l-.005.009c-.224.236-.251.546-.15.826a.908.908 0 0 0 .28.432l.19.172.06.056c.155.144.32.219.478.252.295.08.617.048.862-.157.01-.004 2.708-2.35 2.708-2.35l.147-.128c.225-.173.67-.42 1.06-.068a33.83 33.83 0 0 0-.064-.186c-.044-.13-.1-.24-.163-.33-.342-.49-.91-.439-1.29-.159l-.442.348L1.23 3.185l-.167-.153 2.154-2.3s.324-.44-.505-.688H2.71L2.67.032.223 2.375z"/>
        <path id="s" d="M.028 1.32l.078 1.07.001-.002C.18 2.368 3.432 1.47 4.44 1.18 4.83.808 4.557.383 4.366.17l-.14-.14h-.001L.028 1.32z"/>
        <path id="u" d="M.007.109V.11c.02.068.94 3.156 1.232 4.101a.295.295 0 0 1-.002-.007c.38.369.812.11 1.03-.07l.143-.133L1.094.036.007.109zm1.31 4.19l-.014-.044.014.043z"/>
        <path id="w" d="M4.556.016C4.483.036 1.232.95.223 1.243c-.39.378-.117.81.074 1.028l.14.142h.001L4.635 1.1 4.557.015l-.001.001z"/>
        <path id="y" d="M.154.285L.012.418l1.315 3.967 1.088-.074-.001-.001c-.02-.069-.935-3.143-1.23-4.096a.603.603 0 0 0-.43-.187c-.24 0-.462.144-.6.258zM1.26.292A10.031 10.031 0 0 0 1.24.23l.021.063zm-.004-.01L1.25.26l.007.021z"/>
    </defs>
    <g fill="none" fill-rule="evenodd">
        <g>
            <path fill="#FEFEFE" d="M.69 28.93c-.487 0-.666-.284-.666-.634 0-.408.229-.705.718-.705.108 0 .22.015.321.037l-.026.194a1.165 1.165 0 0 0-.314-.045c-.304 0-.442.21-.442.484 0 .305.144.478.46.478.1 0 .227-.025.307-.06l.028.188a1.18 1.18 0 0 1-.386.063M1.523 28.914v-1.311h.767v.176h-.533v.373h.507v.173h-.507v.408h.533v.18zM3.668 28.914l-.498-.746a2.692 2.692 0 0 1-.162-.276c.009.128.013.394.013.581v.44h-.228v-1.31H3.1l.48.715c.065.097.123.202.177.297-.008-.15-.015-.431-.015-.624v-.388h.228v1.31h-.303zM5.014 27.781v1.133H4.78V27.78h-.4v-.178h1.035v.178zM7.066 29.145l-.806-.667h-.019v.667h-.418v-1.541c.188-.007.402-.01.694-.01.537 0 .906.113.906.419 0 .246-.31.404-.733.431l.219.164.683.537h-.526zm-.606-1.347c-.081 0-.158.002-.219.004v.489c.038.002.111.004.204.004.337 0 .54-.102.54-.255 0-.169-.176-.242-.525-.242z"/>
            <path fill="#FEFEFE" d="M7.974 29.133c-.577 0-.856-.297-.856-.758 0-.5.411-.792.913-.792.512 0 .856.252.856.756 0 .5-.408.794-.913.794m.028-1.336c-.293 0-.557.188-.557.549 0 .341.177.57.552.57.282 0 .563-.178.563-.552 0-.364-.203-.567-.558-.567M10.241 29.147c-.22 0-.403-.007-.573-.01v-1.531c.17-.003.42-.01.67-.01.68 0 1.1.221 1.1.753 0 .528-.493.798-1.197.798m.07-1.346a5.61 5.61 0 0 0-.294.007v1.116c.07.007.176.012.26.012.463 0 .79-.176.79-.569 0-.363-.228-.566-.756-.566"/>
            <path fill="#FEFEFE" d="M11.33 28.914v-1.311h.766v.176h-.531v.373h.506v.173h-.506v.408h.531v.18zM14.612 29.153l-.151-.343h-.794l-.152.343h-.32l.704-1.55h.352l.713 1.55h-.352zm-.46-1.029a1.428 1.428 0 0 1-.087-.239h-.006c-.02.078-.052.163-.09.246l-.22.48h.627l-.224-.487zM15.777 28.914l-.498-.746a2.649 2.649 0 0 1-.162-.276c.009.128.014.394.014.581v.44h-.229v-1.31h.308l.48.715c.065.097.123.202.177.297-.008-.15-.015-.431-.015-.624v-.388h.229v1.31h-.304zM17.896 28.914l-.152-.29h-.794l-.151.29h-.32l.704-1.311h.352l.713 1.31h-.352zm-.46-.87a1.095 1.095 0 0 1-.087-.202h-.006c-.02.065-.052.137-.09.207l-.221.406h.628l-.224-.411zm-.195-.535l-.116-.118.456-.214.14.142-.48.19z"/>
            <path fill="#FEFEFE" d="M18.186 28.914v-1.311h.235v1.126h.5v.185z"/>
            <mask id="b" fill="#fff">
                <use xlink:href="#a"/>
            </mask>
            <path fill="#FEFEFE" d="M19.317 28.914h.235v-1.312h-.235zM20.352 28.933c-.106 0-.209-.011-.293-.03l.013-.2c.082.026.196.048.301.048.16 0 .29-.06.29-.202 0-.276-.636-.16-.636-.583 0-.226.196-.383.534-.383.086 0 .174.01.263.024l-.013.188a1.012 1.012 0 0 0-.263-.037c-.181 0-.274.076-.274.185 0 .262.636.165.636.575 0 .24-.211.415-.558.415M21.369 28.914h.235v-1.312h-.235zM22.404 28.933c-.106 0-.21-.011-.293-.03l.013-.2c.082.026.196.048.301.048.16 0 .289-.06.289-.202 0-.276-.636-.16-.636-.583 0-.226.196-.383.534-.383.087 0 .175.01.264.024l-.013.188a1.013 1.013 0 0 0-.263-.037c-.181 0-.274.076-.274.185 0 .262.636.165.636.575 0 .24-.211.415-.558.415M.637 31.213c-.22 0-.403-.006-.573-.009v-1.532c.17-.002.42-.009.67-.009.68 0 1.1.22 1.1.753 0 .527-.493.797-1.197.797m.07-1.345c-.105 0-.217.002-.294.006v1.117c.07.006.176.011.26.011.463 0 .79-.175.79-.568 0-.364-.228-.566-.756-.566" mask="url(#b)"/>
            <path fill="#FEFEFE" d="M1.566 30.98v-1.31h.767v.176h-.532v.373h.506v.173h-.506v.408h.532v.18zM3.936 30.647c-.063 0-.139 0-.21-.004v.568h-.458v-1.54c.219-.005.462-.01.727-.01.673 0 1.042.178 1.042.464 0 .299-.441.522-1.1.522m.024-.783c-.088 0-.16 0-.235.005v.564c.063.004.134.01.202.01.382-.003.635-.117.635-.298 0-.175-.19-.28-.602-.28" mask="url(#b)"/>
            <path fill="#FEFEFE" d="M5.237 31.2c-.577 0-.856-.297-.856-.759 0-.5.41-.791.912-.791.513 0 .857.252.857.756 0 .5-.409.794-.913.794m.028-1.336c-.293 0-.558.187-.558.548 0 .342.178.571.553.571.281 0 .563-.178.563-.553 0-.363-.203-.566-.558-.566" mask="url(#b)"/>
            <path fill="#FEFEFE" d="M6.044 30.98v-1.31h.235v1.126h.5v.184zM7.295 29.574l-.346-.117 1.355-.213.415.141-1.424.189zm-.078 1.407h.94v-1.312h-.94v1.312z" mask="url(#b)"/>
            <path fill="#FEFEFE" d="M8.131 29.848v1.132h-.235v-1.132h-.398v-.179h1.034v.179zM8.78 30.98h.235v-1.31H8.78zM9.997 30.996c-.487 0-.666-.284-.666-.633 0-.408.228-.706.717-.706.108 0 .22.016.321.037l-.025.195a1.166 1.166 0 0 0-.315-.045c-.304 0-.442.21-.442.484 0 .305.145.478.461.478.1 0 .227-.026.306-.06l.028.188a1.18 1.18 0 0 1-.385.062M11.997 31.22l-.151-.343h-.794l-.152.342h-.32l.704-1.55h.352l.713 1.55h-.352zm-.46-1.03a1.428 1.428 0 0 1-.087-.238h-.006c-.02.078-.052.162-.09.245l-.22.48h.627l-.224-.486z" mask="url(#b)"/>
            <path fill="#FEFEFE" d="M12.403 31c-.105 0-.209-.012-.293-.031l.013-.2c.082.027.196.048.302.048.16 0 .288-.06.288-.202 0-.276-.635-.159-.635-.582 0-.226.196-.383.534-.383.086 0 .175.01.263.023l-.013.188a1.013 1.013 0 0 0-.263-.036c-.18 0-.274.075-.274.184 0 .262.636.165.636.575 0 .241-.21.416-.558.416M14.527 30.647c-.063 0-.138 0-.21-.004v.568h-.458v-1.54c.219-.005.462-.01.727-.01.673 0 1.043.178 1.043.464 0 .299-.442.522-1.102.522m.026-.783c-.089 0-.16 0-.236.005v.564c.063.004.135.01.202.01.382-.003.634-.117.634-.298 0-.175-.188-.28-.6-.28" mask="url(#b)"/>
            <path fill="#FEFEFE" d="M15.882 31c-.706 0-.856-.226-.856-.466v-.865h.363v.85c0 .174.1.306.516.306.367 0 .534-.09.534-.334v-.822h.356v.806c0 .35-.323.525-.913.525zm-.087-1.424l-.133-.118.523-.214.16.142-.55.19z" mask="url(#b)"/>
            <path fill="#FEFEFE" d="M17.279 31.213c-.162 0-.43-.004-.725-.007V29.67c.209-.002.512-.007.835-.007.58 0 .879.137.879.374 0 .157-.181.295-.453.35v.005c.347.038.508.19.508.35 0 .2-.229.471-1.044.471m.04-1.352c-.119 0-.233.003-.336.005v.455c.071.002.138.002.229.002.398 0 .607-.093.607-.248 0-.125-.122-.214-.5-.214m-.095.647c-.044 0-.182 0-.24.002V31c.066.006.173.01.31.01.39 0 .576-.108.576-.263 0-.175-.272-.24-.646-.24" mask="url(#b)"/>
            <path fill="#FEFEFE" d="M17.844 30.98v-1.31h.235v1.126h.5v.184zM18.816 30.98h.235v-1.31h-.235zM20.033 30.996c-.487 0-.666-.284-.666-.633 0-.408.228-.706.717-.706.108 0 .22.016.321.037l-.025.195a1.166 1.166 0 0 0-.315-.045c-.304 0-.442.21-.442.484 0 .305.145.478.461.478.1 0 .227-.026.306-.06l.028.188a1.18 1.18 0 0 1-.385.062M22.033 31.22l-.151-.343h-.794l-.152.342h-.32l.704-1.55h.353l.712 1.55h-.352zm-.46-1.03a1.428 1.428 0 0 1-.087-.238h-.006c-.02.078-.052.162-.09.245l-.22.48h.627l-.224-.486z" mask="url(#b)"/>
            <path fill="#FEFEFE" d="M22.439 31c-.105 0-.209-.012-.293-.031l.013-.2c.082.027.196.048.302.048.16 0 .288-.06.288-.202 0-.276-.635-.159-.635-.582 0-.226.196-.383.534-.383.086 0 .175.01.263.023l-.013.188a1.012 1.012 0 0 0-.263-.036c-.181 0-.274.075-.274.184 0 .262.636.165.636.575 0 .241-.211.416-.558.416M0 26.35h2.473v-.677H.876v-1.117h1.516v-.647H.876v-1.013h1.597v-.665H0v4.12zm6.338-4.118l-.896 2.361a7.027 7.027 0 0 0-.27.854H5.16a8.638 8.638 0 0 0-.27-.805l-.882-2.41h-.956l1.583 4.118h1.01l1.59-4.118h-.896zm2.199-.001l-1.59 4.12h.882l.317-.843h1.718l.317.842h.97l-1.624-4.119h-.99zm-.169 2.649l.411-1.05c.088-.238.162-.476.216-.69h.007c.053.232.12.434.208.66l.425 1.08H8.368zm4.272-2.648h-.876v4.118h2.352v-.695H12.64v-3.423zm4.843 2.568c0 .702-.283.958-.957.958-.754 0-.943-.366-.943-.885v-2.641h-.876v2.69c0 .787.323 1.495 1.759 1.495 1.199 0 1.886-.543 1.886-1.666v-2.52h-.869v2.57zm.027-3.112l-.357-.492-1.179.615.297.408 1.239-.531zm3.827.543h-.99l-1.59 4.12h.882l.317-.843h1.718l.317.842h.97l-1.624-4.119zm-1.159 2.649l.411-1.05c.088-.238.162-.476.216-.69h.007c.054.232.121.434.209.66l.424 1.08h-1.267zM1.933 18.597l-.398 1.078a2.745 2.745 0 0 0-.13.433h-.008a3.013 3.013 0 0 0-.127-.439l-.387-1.072H.36l-.357 2.086h.453l.13-.961c.028-.183.052-.347.066-.532h.006c.028.167.086.356.148.525l.354.968h.442l.368-1.048c.058-.167.096-.312.127-.445h.007c.017.145.038.3.072.498l.165.995h.47l-.36-2.086h-.519zm9.156 0h-.508l-.467.723-.47-.723h-.518l.693 1.02-.738 1.066h.529l.498-.767.497.767h.563l-.762-1.07.683-1.016zm-5.72 2.086h1.26v-.343h-.814v-.566h.773v-.327h-.773v-.514h.814v-.336h-1.26v2.086zm8.276 0h.446v-2.086h-.446v2.086zm8.223-2.12c-.621 0-1.133.414-1.133 1.103 0 .646.347 1.05 1.054 1.05.628 0 1.133-.417 1.133-1.106 0-.713-.436-1.047-1.054-1.047zm-.048 1.789c-.415 0-.607-.287-.607-.73 0-.47.295-.698.614-.698.398 0 .618.254.618.717 0 .5-.323.711-.625.711zm-3.977-.006c-.467 0-.676-.253-.676-.708 0-.405.213-.698.645-.698.158 0 .316.022.467.062l.048-.365a2.118 2.118 0 0 0-.49-.056c-.777 0-1.161.464-1.161 1.125 0 .52.26 1.004 1.071 1.004.216 0 .426-.037.597-.092l-.051-.359c-.12.05-.31.087-.45.087zm-11.4-2.256l-.177-.245-.588.307.147.203.619-.265zM11.02.03c-.554.126-.728.629-.79.808L8.844 4.756l-.006.02c-.275.778-.763.474-.763.474l.27.212.196.153c.159.119.35.197.545.213h.148c.314-.027.617-.232.783-.713.202-.59 1.326-4.13 1.348-4.203l.001-.002h.242l.001.002c.021.067.976 3.078 1.285 4.012 0 .004.002.007.003.01l-.003-.01c.395.361.847.108 1.075-.068l.15-.131L12.744.838c-.062-.18-.236-.682-.79-.808h-.933zm1.95 4.977zm.001.005l-.007-.022.007.022z" mask="url(#b)"/>
        </g>
        <g transform="translate(8.074)">
            <mask id="d" fill="#fff">
                <use xlink:href="#c"/>
            </mask>
            <path fill="#FEFEFE" d="M.003 5.922h6.075V.031H.003z" mask="url(#d)"/>
        </g>
        <g fill="#FEFEFE">
            <path d="M15.626 5.606l.014-.014V5.59z"/>
            <path d="M15.563 5.541l-.392.434-.059.074c-.208.29-.258.668 0 .963a.9.9 0 0 0 .127.118c.118.09.274.17.473.229.64.19 4.471 1.244 4.55 1.266h.002v.227l-.002.001-4.343 1.205c-.39.371-.117.796.074 1.01l.142.14 4.207-1.29c.222-.067.905-.272.905-.994v-.37c0-.723-.683-.928-.905-.995L16.12 6.265l-.04-.012c-.84-.257-.516-.712-.513-.715l-.004.003z"/>
        </g>
        <g transform="translate(14.926 5.716)">
            <mask id="f" fill="#fff">
                <use xlink:href="#e"/>
            </mask>
            <path fill="#FEFEFE" d="M-.071 5.491H6.32V.004H-.07z" mask="url(#f)"/>
        </g>
        <path fill="#FEFEFE" d="M12.96 12.575a474.5 474.5 0 0 0-1.365 4.122h-.001l-.244.001-.002-.002c-.021-.065-.988-3.018-1.3-3.934-.4-.354-.858-.106-1.089.067l-.15.128 1.39 3.812c.072.201.294.82 1.073.82h.4c.78 0 1-.619 1.072-.82l1.403-3.842.007-.019c.277-.76.768-.468.772-.465l-.004-.004-.27-.204-.198-.15a1.092 1.092 0 0 0-.627-.213c-.344 0-.686.195-.867.703"/>
        <g transform="translate(8.809 11.652)">
            <mask id="h" fill="#fff">
                <use xlink:href="#g"/>
            </mask>
            <path fill="#FEFEFE" d="M.012 5.92h6.076V.034H.012z" mask="url(#h)"/>
        </g>
        <g fill="#FEFEFE">
            <path d="M7.475 12.097l.001-.002-.001.002zM2.632 7.685c-.222.067-.905.27-.905.988v.368c0 .718.683.921.905.987l4.221 1.286.04.012h.001c.822.25.528.69.514.71l.395-.433c.02-.024.04-.049.058-.074.208-.289.258-.664 0-.956a.882.882 0 0 0-.127-.118 1.447 1.447 0 0 0-.473-.228c-.638-.188-4.47-1.235-4.55-1.257v-.227c.074-.02 3.333-.91 4.344-1.197.39-.37.117-.79-.074-1.003l-.142-.139-4.207 1.28z"/>
        </g>
        <g transform="translate(1.713 6.376)">
            <mask id="j" fill="#fff">
                <use xlink:href="#i"/>
            </mask>
            <path fill="#FEFEFE" d="M.014 5.698h6.393V.028H.014z" mask="url(#j)"/>
        </g>
        <path fill="#FEFEFE" d="M15.993 10.119l-.191.054c-.117.034-.22.074-.308.119-.62.316-.569.875-.242 1.244l.392.415 2.354 2.501-.171.159-2.855-2.232c-.003-.002-.495-.301-.774.475l-.007.02s2.48 2.167 2.896 2.524c.416.357 1.052.226 1.424-.118l.248-.228a.901.901 0 0 0 .28-.454c.092-.284.054-.595-.184-.83-.06-.06-2.624-2.522-2.624-2.522l-.144-.138c-.194-.21-.472-.629-.075-.995l-.019.006"/>
        <g transform="translate(14.191 10.113)">
            <mask id="l" fill="#fff">
                <use xlink:href="#k"/>
            </mask>
            <path fill="#FEFEFE" d="M-1.063.2l5.82-.91L5.98 5.443l-5.82.91z" mask="url(#l)"/>
        </g>
        <path fill="#FEFEFE" d="M4.489 2.309l-.248.227a.9.9 0 0 0-.28.454c-.092.285-.054.596.184.83.06.06 2.624 2.523 2.624 2.523l.144.138c.194.21.473.628.075.994a.509.509 0 0 1 .019-.005l.191-.054c.118-.034.22-.074.308-.119.62-.316.568-.875.242-1.244l-.391-.415-2.355-2.501.171-.16L8.028 5.21c.003.003.496.302.774-.474l.007-.02s-2.48-2.167-2.896-2.524a.897.897 0 0 0-.596-.212c-.301 0-.61.128-.828.33"/>
        <g transform="translate(3.915 1.979)">
            <mask id="n" fill="#fff">
                <use xlink:href="#m"/>
            </mask>
            <path fill="#FEFEFE" d="M5.902 5.321l-5.791.912L-1.085.18l5.792-.912z" mask="url(#n)"/>
        </g>
        <path fill="#FEFEFE" d="M16.903 2.398c-.01.005-2.722 2.378-2.722 2.378l-.148.129c-.226.175-.673.425-1.065.068l.064.188c.045.132.1.243.164.334.343.497.914.444 1.296.16l.445-.351 2.678-2.117.168.156-2.165 2.325s-.326.445.508.696l.04.012 2.463-2.37c0-.003.002-.006.004-.008.225-.24.253-.553.151-.836a.92.92 0 0 0-.282-.436l-.19-.175-.061-.056a.992.992 0 0 0-.481-.255 1.127 1.127 0 0 0-.298-.041.868.868 0 0 0-.569.2"/>
        <g transform="translate(12.723 2.199)">
            <mask id="p" fill="#fff">
                <use xlink:href="#o"/>
            </mask>
            <path fill="#FEFEFE" d="M.219 5.074L-.782.127 5.94-.906l1.001 4.948z" mask="url(#p)"/>
        </g>
        <path fill="#FEFEFE" d="M4.372 13.583l-.005.008c-.225.239-.253.552-.152.835.044.16.138.305.283.437l.19.174.061.057a.99.99 0 0 0 .481.255c.296.081.62.049.867-.158.01-.005 2.722-2.378 2.722-2.378l.147-.13c.227-.174.674-.424 1.066-.067a31.578 31.578 0 0 0-.064-.189 1.35 1.35 0 0 0-.164-.333c-.343-.497-.914-.444-1.296-.161l-.445.352-2.678 2.117-.168-.156 2.165-2.325s.326-.445-.508-.696l-.04-.012-2.462 2.37z"/>
        <g transform="translate(4.16 11.213)">
            <mask id="r" fill="#fff">
                <use xlink:href="#q"/>
            </mask>
            <path fill="#FEFEFE" d="M-1.338.389L5.35-1.44l1.808 5.285L.47 5.673z" mask="url(#r)"/>
        </g>
        <path fill="#FEFEFE" d="M2.691 7.7l.079 1.094h.002c.073-.02 3.352-.941 4.369-1.238.393-.381.117-.817-.075-1.036l-.142-.144L2.69 7.7z"/>
        <g transform="translate(2.691 6.376)">
            <mask id="t" fill="#fff">
                <use xlink:href="#s"/>
            </mask>
            <path fill="#FEFEFE" d="M.028 2.389H4.83V.029H.028z" mask="url(#t)"/>
        </g>
        <path fill="#FEFEFE" d="M11.745.95V.95a604.102 604.102 0 0 0 1.253 3.926c.385.353.825.106 1.048-.067l.145-.128L12.851.88l-1.106.07z"/>
        <g transform="translate(11.745 .66)">
            <mask id="v" fill="#fff">
                <use xlink:href="#u"/>
            </mask>
            <path fill="#FEFEFE" d="M.007 4.574H2.41V.036H.007z" mask="url(#v)"/>
        </g>
        <path fill="#FEFEFE" d="M20.228 8.795c-.073.02-3.351.94-4.369 1.238-.392.38-.117.817.075 1.036l.142.144 4.233-1.324-.08-1.095v.001z"/>
        <g transform="translate(15.66 8.794)">
            <mask id="x" fill="#fff">
                <use xlink:href="#w"/>
            </mask>
            <path fill="#FEFEFE" d="M-.167 2.413h4.802V.015H-.167z" mask="url(#x)"/>
        </g>
        <path fill="#FEFEFE" d="M8.954 12.779l-.145.127 1.34 3.803 1.106-.07v-.002c-.022-.066-.966-3.055-1.26-3.945l.007.02a.634.634 0 0 0-.438-.18c-.244 0-.47.138-.61.247"/>
        <g transform="translate(8.809 12.312)">
            <mask id="z" fill="#fff">
                <use xlink:href="#y"/>
            </mask>
            <path fill="#FEFEFE" d="M.012 4.385h2.403V.027H.012z" mask="url(#z)"/>
        </g>
    </g>
</svg>
