<svg xmlns="http://www.w3.org/2000/svg" xmlns:xlink="http://www.w3.org/1999/xlink" width="154" height="29" viewBox="0 0 154 29">
    <defs>
        <path id="a" d="M0 29h154V0H0z"/>
    </defs>
    <g fill="none" fill-rule="evenodd">
        <path fill="#FFF" d="M49.942 11.619c-.299-2.038-1.911-3.305-4.02-3.305-2.247 0-3.903 1.101-3.903 3.015 0 1.89 2.21 2.47 4.14 3.013 1.872.518 4.76 1.267 4.76 4.26 0 2.348-1.952 4.094-4.917 4.094-3.025 0-4.82-1.914-5.018-4.239l.739-.209c.119 1.994 1.631 3.7 4.279 3.7 2.528 0 4.138-1.412 4.138-3.347 0-2.618-2.806-3.118-4.755-3.677-1.572-.46-4.141-1.102-4.141-3.595 0-2.265 1.99-3.764 4.678-3.764 2.469 0 4.379 1.48 4.76 3.846l-.74.208zM60.843 21.93c3.692 0 6.665-2.787 6.665-6.8 0-4.074-2.973-6.793-6.665-6.793-3.71 0-6.642 2.72-6.642 6.793 0 4.013 2.932 6.8 6.642 6.8m0-14.365c4.121 0 7.463 3.182 7.463 7.565 0 4.384-3.342 7.566-7.463 7.566s-7.44-3.182-7.44-7.566c0-4.383 3.319-7.565 7.44-7.565M84.725 11.555c-1.087-1.996-3.143-3.22-5.515-3.22-3.581 0-6.407 2.72-6.407 6.796 0 4.013 2.826 6.775 6.407 6.775 2.51 0 4.664-1.414 5.731-3.635l.753.227c-1.167 2.578-3.598 4.198-6.484 4.198-3.976 0-7.178-3.181-7.178-7.565 0-4.383 3.202-7.566 7.178-7.566 2.707 0 5.04 1.48 6.286 3.786l-.771.204z"/>
        <mask id="b" fill="#fff">
            <use xlink:href="#a"/>
        </mask>
        <path fill="#FFF" d="M88.5 21.435h.598V7.565h-.599zM103.61 16.387l-2.965-6.403c-.31-.673-.642-1.507-.661-1.507h-.02c-.022 0-.351.834-.66 1.507l-2.965 6.403h7.27zm.329.689h-7.93l-2.018 4.359h-.846l6.489-13.87h.68l6.492 13.87h-.845l-2.022-4.36zM119.226 20.705v.73h-8.694V7.565h.76v13.14zM131.645 7.565v1.528h-4.776v12.342h-1.647V9.093h-4.754V7.565zM135.371 21.435h1.242V7.565h-1.242zM152.16 11.826c-.948-1.601-2.708-2.597-4.645-2.597-3.162 0-5.517 2.39-5.517 5.9 0 3.515 2.413 5.883 5.517 5.883a5.423 5.423 0 0 0 4.884-3.014l1.601.46c-1.149 2.577-3.6 4.238-6.485 4.238-3.974 0-7.176-3.181-7.176-7.566 0-4.382 3.202-7.565 7.176-7.565 2.71 0 5.04 1.499 6.284 3.827l-1.638.434zM36.404 15.365c-1.042-.002-4.443 0-4.443 0l-.225 1.953s3.645-.96 4.756-1.254c1.111-.29.954-.7-.088-.7m-15.2-1.468a.264.264 0 0 0-.022-.054c-1.003-2.534-3.863-3.897-6.473-3.253-2.295.565-3.968 2.507-4.522 4.785h2.107c.24-.338.552-.602.866-.87-.015.02.05-.052-.03.038a4.637 4.637 0 0 1 3.029-.705c1.012.106 2.419.523 2.873 1.536l2.333-.003c.011-.488-.029-.941-.148-1.412.008.02.01.016-.012-.062M22.67 26.39c-4.68 2.357-10.848 1.236-14.166-2.956l-1.274.337c3.784 5.136 11.042 6.619 16.64 3.868 4.008-1.97 6.99-5.87 7.838-10.315l-3.043.801c-.564 3.6-2.786 6.649-5.995 8.265m2.925-7.454l-2.589.68c-1.75 2.714-5.496 3.625-8.322 2.192l-1.851.486a8.333 8.333 0 0 0 3.05 1.35c3.926.861 7.86-1.159 9.712-4.708m-9.712 4.708c-.793-.17.795.173 0 0M9.47 10.84c-.073.084-.012.02-.026.033 1.986-1.42 4.149-2.068 6.592-1.818 2.101.214 3.933 1.116 5.586 2.396 1.147 1.097 2.02 2.293 2.283 3.919h2.748c.077-.81.077-1.64-.075-2.461.038.2.072.378 0-.008-.089-.472-.046-.232-.003-.008-1.015-5.369-6.424-8.704-11.637-7.89-5.087.796-9.043 5.292-9.808 10.374l1.574-.003c.431-1.826 1.4-3.293 2.766-4.534M5.727 7.19c2.075-1.72 4.336-2.964 7.014-3.407 2.53-.42 5.112-.132 7.502.778 4.53 1.719 8.107 5.8 8.533 10.808h3.171c.315-5.68-2.815-10.619-7.554-13.34-4.935-2.834-11.29-2.67-16.131.321C3.604 5.229.876 9.973 0 15.379l1.543-.002c.6-3.25 1.985-5.939 4.205-8.213-.064.071-.01.012-.021.025" mask="url(#b)"/>
    </g>
</svg>
