<svg xmlns="http://www.w3.org/2000/svg" width="29" height="24" viewBox="0 0 29 24">
    <path fill="#FFF" fill-rule="nonzero" d="M29 2.84a11.71 11.71 0 0 1-3.416.954A6.068 6.068 0 0 0 28.2.444a11.86 11.86 0 0 1-3.78 1.47A5.882 5.882 0 0 0 20.077 0c-3.286 0-5.95 2.714-5.95 6.06 0 .474.053.937.155 1.38C9.338 7.189 4.954 4.776 2.02 1.109a6.102 6.102 0 0 0-.805 3.046 6.089 6.089 0 0 0 2.646 5.044 5.866 5.866 0 0 1-2.695-.76v.075c0 2.936 2.051 5.386 4.771 5.943a5.921 5.921 0 0 1-1.567.213c-.384 0-.756-.039-1.12-.113.757 2.41 2.954 4.162 5.556 4.21a11.796 11.796 0 0 1-7.388 2.59c-.48 0-.953-.03-1.419-.083A16.591 16.591 0 0 0 9.119 24c10.943 0 16.925-9.235 16.925-17.244l-.02-.785A12.005 12.005 0 0 0 29 2.84z"/>
</svg>
